<svg xmlns="http://www.w3.org/2000/svg" width="1028" height="900" viewBox="0 0 5941.507 3234.08"><path d="M44561.3 2799.8V0H0v2800c36.582 110.7 75.707 221 117.484 331C507.57 4157.8 1132.41 5166 2027.74 6213.1L2326.1 6562l-179.08 423c-349.05 823.6-504.81 1639.7-463.03 2425.5 39.01 734.9 248.11 1406.1 621.23 1995 365.59 576.7 868.07 1041.4 1493.66 1381.3 667.03 362.3 1440.74 563.5 2299.48 598.2l837.22 33.7-134.55 827c-71.14 438.1 24.71 804.5 293.18 1120.2 247.69 291.1 626.96 525.7 1127.42 697.1 562.29 192.6 1235.69 290.2 2001.47 290.2 311.1 0 637.4-16.7 970-49.6l808.2-79.9 7.1 812.1c4 463.8 87.6 834 255.6 1131.6 146 258.8 365.9 475.5 672.3 662.3 680 414.6 1683.6 636.4 2845.4 893.2 2023.1 447.1 4512.5 997.4 6498.9 2936.4 1986.5-1939 4475.8-2489.3 6498.3-2936.3 1162.5-256.9 2166-478.7 2846-893.3 306.5-186.8 526.4-403.5 672.4-662.3 167.9-297.6 251.4-667.8 255.6-1131.6l7-812.1 808.2 79.9c332.6 32.9 659 49.6 970 49.6 765.9 0 1439.4-97.6 2001.5-290.2 500.5-171.3 879.8-405.9 1127.4-696.9 268.5-315.8 364.4-682.2 293.1-1120.4l-134.4-827 837.1-33.7c858.9-34.7 1632.6-235.9 2299.6-598.2 625.5-339.9 1128.1-804.6 1493.6-1381.3 373.2-588.9 582.2-1260.1 621.2-1994.9 41.8-785.9-114-1602-462.9-2425.6l-179.2-423 298.4-348.9c895.4-1047.2 1520.2-2055.3 1910.2-3082.1q62.7-165 117.6-331.2" style="fill:#fff;fill-opacity:0;fill-rule:nonzero;stroke:none" transform="matrix(.13333 0 0 -.13333 0 3234.08)"/><path d="M44561.3 4055.4V2799.8q-54.9 166.2-117.6 331.2c-390 1026.8-1014.8 2034.9-1910.2 3082.1l-298.4 348.9 179.2 423c348.9 823.6 504.7 1639.7 462.9 2425.6-39 734.8-248 1406-621.2 1994.9-365.5 576.7-868.1 1041.4-1493.6 1381.3-667 362.3-1440.7 563.5-2299.6 598.2l-837.1 33.7 134.4 827c71.3 438.2-24.6 804.6-293.1 1120.4-247.6 291-626.9 525.6-1127.4 696.9-562.1 192.6-1235.6 290.2-2001.5 290.2-311 0-637.4-16.7-970-49.6l-808.2-79.9-7 812.1c-4.2 463.8-87.7 834-255.6 1131.6-146 258.8-365.9 475.5-672.4 662.3-680 414.6-1683.5 636.4-2846 893.3-2022.5 447-4511.8 997.3-6498.3 2936.3-1986.4-1939-4475.8-2489.3-6498.9-2936.4-1161.8-256.8-2165.4-478.6-2845.4-893.2-306.4-186.8-526.3-403.5-672.3-662.3-168-297.6-251.6-667.8-255.6-1131.6l-7.1-812.1-808.2 79.9c-332.6 32.9-658.9 49.6-970 49.6-765.78 0-1439.18-97.6-2001.47-290.2-500.46-171.4-879.73-406-1127.42-697.1-268.47-315.7-364.32-682.1-293.18-1120.2l134.55-827-837.22-33.7c-858.74-34.7-1632.45-235.9-2299.48-598.2-625.59-339.9-1128.07-804.6-1493.66-1381.3-373.12-588.9-582.22-1260.1-621.23-1995-41.78-785.8 113.98-1601.9 463.03-2425.5l179.08-423-298.36-348.9C1132.41 5166 507.57 4157.8 117.484 3131A8017 8017 0 0 1 0 2800v1255.4c402.277 820 951.738 1633.6 1665 2467.7l106.67 124.7-64.04 151c-377.47 891.1-545.74 1778.3-500.15 2637.1 43.47 817.6 277.27 1566.2 694.71 2224.9 409.61 646.3 971.14 1166.2 1668.93 1545.2 731.72 397.5 1575.62 618.1 2508.05 655.7l299.01 12.1-48.03 295.3c-93.74 576.5 41.03 1083.1 400.69 1506 303.89 357.3 753.46 639.7 1336.2 839.3 612.12 209.6 1337.48 316 2156.06 316 326.7 0 668.8-17.5 1017-52l288.6-28.5 2.6 290c4.8 546.7 108.4 992.2 317 1362 187.2 331.6 461.8 604.8 839.7 835.2 747.7 456 1787.2 685.7 2990.8 951.7 2086.5 461.1 4665.4 1030.9 6601.8 3157.1 1936.3-2126.2 4515.4-2696 6601.8-3157.1 1203.6-266 2243.1-495.7 2990.9-951.7 377.9-230.4 652.5-503.6 839.6-835.2 208.5-369.8 312.3-815.3 317-1362l2.5-290 288.6 28.5c348.3 34.5 690.5 52 1017.1 52 818.7 0 1544-106.4 2156.1-316 582.8-199.6 1032.4-481.9 1336.2-839.2 359.7-422.8 494.5-929.5 400.7-1506.1l-48-295.3 299-12.1c932.4-37.6 1776.2-258.2 2508.1-655.7 697.7-379 1259.2-898.9 1668.8-1545.2 417.5-658.7 651.2-1407.3 694.7-2224.9 45.6-858.8-122.7-1746-500.2-2637.1l-63.9-151 106.6-124.7c713.2-834.1 1262.7-1647.7 1665.1-2467.7" style="fill:#6c94a8;fill-opacity:1;fill-rule:nonzero;stroke:none" transform="matrix(.13333 0 0 -.13333 0 3234.08)"/><path d="M44561.3 4627.5v-572.1c-402.4 820-951.9 1633.6-1665.1 2467.7l-106.6 124.7 63.9 151c377.5 891.1 545.8 1778.3 500.2 2637.1-43.5 817.6-277.2 1566.2-694.7 2224.9-409.6 646.3-971.1 1166.2-1668.8 1545.2-731.9 397.5-1575.7 618.1-2508.1 655.7l-299 12.1 48 295.3c93.8 576.6-41 1083.3-400.7 1506.1-303.8 357.3-753.4 639.6-1336.2 839.2-612.1 209.6-1337.4 316-2156.1 316-326.6 0-668.8-17.5-1017.1-52l-288.6-28.5-2.5 290c-4.7 546.7-108.5 992.2-317 1362-187.1 331.6-461.7 604.8-839.6 835.2-747.8 456-1787.3 685.7-2990.9 951.7-2086.4 461.1-4665.5 1030.9-6601.8 3157.1-1936.4-2126.2-4515.3-2696-6601.8-3157.1-1203.6-266-2243.1-495.7-2990.8-951.7-377.9-230.4-652.5-503.6-839.7-835.2-208.6-369.8-312.2-815.3-317-1362l-2.6-290-288.6 28.5c-348.2 34.5-690.3 52-1017 52-818.58 0-1543.94-106.4-2156.06-316-582.74-199.6-1032.31-482-1336.2-839.3-359.66-422.9-494.43-929.5-400.69-1506l48.03-295.3-299.01-12.1c-932.43-37.6-1776.33-258.2-2508.05-655.7-697.79-379-1259.32-898.9-1668.93-1545.2-417.44-658.7-651.24-1407.3-694.71-2224.9-45.59-858.8 122.68-1746 500.15-2637.1l64.04-151L1665 6523.1C951.738 5689 402.277 4875.4 0 4055.4v572.3c407.902 732.7 906.461 1416.1 1463.55 2067.7-1599.905 3776.5 576.59 7268.7 4604.92 7431.2-324.88 1997.9 1844.72 3247.4 5197.73 2915.6 40.6 4669.8 7025.2 1981.6 11014.4 6705.6 3989.2-4724 10973.8-2035.8 11014.4-6705.6 3353 331.8 5522.6-917.7 5197.7-2915.6 4028.3-162.5 6204.8-3654.7 4604.9-7431.2 557.2-651.7 1055.8-1335.1 1463.7-2067.9" style="fill:#2e557a;fill-opacity:1;fill-rule:nonzero;stroke:none" transform="matrix(.13333 0 0 -.13333 0 3234.08)"/><path d="M44561.3 24255.6V4627.5c-407.9 732.8-906.5 1416.2-1463.7 2067.9 1599.9 3776.5-576.6 7268.7-4604.9 7431.2 324.9 1997.9-1844.7 3247.4-5197.7 2915.6-40.6 4669.8-7025.2 1981.6-11014.4 6705.6-3989.2-4724-10973.8-2035.8-11014.4-6705.6-3353.01 331.8-5522.61-917.7-5197.73-2915.6-4028.33-162.5-6204.825-3654.7-4604.92-7431.2C906.461 6043.8 407.902 5360.4 0 4627.7v19627.9z" style="fill:#1a3a5a;fill-opacity:1;fill-rule:nonzero;stroke:none" transform="matrix(.13333 0 0 -.13333 0 3234.08)"/></svg>